<svg xmlns="http://www.w3.org/2000/svg" width="1080" height="380" viewBox="0 0 1080 380">
<defs>
  <marker id="arrow" markerWidth="10" markerHeight="10" refX="8" refY="3" orient="auto" markerUnits="strokeWidth">
    <path d="M0,0 L0,6 L9,3 z" fill="#7d3d1f"/>
  </marker>
</defs>
<rect width="1080" height="380" fill="#f8f4ed"/>
<text x="540" y="36" text-anchor="middle" font-size="24" fill="#1d2a33" font-weight="bold">核心数据模型图</text>
<line x1="140" y1="160" x2="140" y2="220" stroke="#7d3d1f" stroke-width="3" marker-end="url(#arrow)"/><line x1="230" y1="275" x2="320" y2="275" stroke="#7d3d1f" stroke-width="3" marker-end="url(#arrow)"/><line x1="500" y1="275" x2="590" y2="275" stroke="#7d3d1f" stroke-width="3" marker-end="url(#arrow)"/><line x1="770" y1="275" x2="860" y2="275" stroke="#7d3d1f" stroke-width="3" marker-end="url(#arrow)"/>
<rect x="50" y="70" width="180" height="90" rx="16" fill="#fffaf3" stroke="#b8842f" stroke-width="2"/><text x="140.0" y="98" text-anchor="middle" font-size="16" fill="#1d2a33">contracts</text><text x="140.0" y="118" text-anchor="middle" font-size="16" fill="#1d2a33">instrument_id</text><text x="140.0" y="138" text-anchor="middle" font-size="16" fill="#1d2a33">product_id</text><text x="140.0" y="158" text-anchor="middle" font-size="16" fill="#1d2a33">contract_month</text><rect x="50" y="220" width="180" height="110" rx="16" fill="#fffaf3" stroke="#b8842f" stroke-width="2"/><text x="140.0" y="248" text-anchor="middle" font-size="16" fill="#1d2a33">futures_daily</text><text x="140.0" y="268" text-anchor="middle" font-size="16" fill="#1d2a33">trading_date</text><text x="140.0" y="288" text-anchor="middle" font-size="16" fill="#1d2a33">open/high/low/close</text><text x="140.0" y="308" text-anchor="middle" font-size="16" fill="#1d2a33">volume/open_interest</text><rect x="320" y="220" width="180" height="110" rx="16" fill="#fffaf3" stroke="#b8842f" stroke-width="2"/><text x="410.0" y="248" text-anchor="middle" font-size="16" fill="#1d2a33">main_contract_daily</text><text x="410.0" y="268" text-anchor="middle" font-size="16" fill="#1d2a33">daily_return</text><text x="410.0" y="288" text-anchor="middle" font-size="16" fill="#1d2a33">rolling_vol_20</text><text x="410.0" y="308" text-anchor="middle" font-size="16" fill="#1d2a33">drawdown</text><rect x="590" y="220" width="180" height="110" rx="16" fill="#fffaf3" stroke="#b8842f" stroke-width="2"/><text x="680.0" y="248" text-anchor="middle" font-size="16" fill="#1d2a33">macro_series</text><text x="680.0" y="268" text-anchor="middle" font-size="16" fill="#1d2a33">series_name</text><text x="680.0" y="288" text-anchor="middle" font-size="16" fill="#1d2a33">observation_date</text><text x="680.0" y="308" text-anchor="middle" font-size="16" fill="#1d2a33">value</text><rect x="860" y="220" width="180" height="110" rx="16" fill="#fffaf3" stroke="#b8842f" stroke-width="2"/><text x="950.0" y="248" text-anchor="middle" font-size="16" fill="#1d2a33">analysis_snapshot</text><text x="950.0" y="268" text-anchor="middle" font-size="16" fill="#1d2a33">VaR</text><text x="950.0" y="288" text-anchor="middle" font-size="16" fill="#1d2a33">trend_signal</text><text x="950.0" y="308" text-anchor="middle" font-size="16" fill="#1d2a33">risk_level</text>
</svg>