<svg xmlns="http://www.w3.org/2000/svg" width="1080" height="380" viewBox="0 0 1080 380">
<defs>
  <marker id="arrow" markerWidth="10" markerHeight="10" refX="8" refY="3" orient="auto" markerUnits="strokeWidth">
    <path d="M0,0 L0,6 L9,3 z" fill="#7d3d1f"/>
  </marker>
</defs>
<rect width="1080" height="380" fill="#f8f4ed"/>
<text x="540" y="36" text-anchor="middle" font-size="24" fill="#1d2a33" font-weight="bold">数据处理流程图</text>
<line x1="190" y1="160" x2="240" y2="160" stroke="#7d3d1f" stroke-width="3" marker-end="url(#arrow)"/><line x1="390" y1="160" x2="440" y2="160" stroke="#7d3d1f" stroke-width="3" marker-end="url(#arrow)"/><line x1="590" y1="160" x2="640" y2="100" stroke="#7d3d1f" stroke-width="3" marker-end="url(#arrow)"/><line x1="590" y1="160" x2="640" y2="220" stroke="#7d3d1f" stroke-width="3" marker-end="url(#arrow)"/><line x1="800" y1="100" x2="850" y2="160" stroke="#7d3d1f" stroke-width="3" marker-end="url(#arrow)"/><line x1="800" y1="220" x2="850" y2="160" stroke="#7d3d1f" stroke-width="3" marker-end="url(#arrow)"/>
<rect x="40" y="130" width="150" height="60" rx="16" fill="#fffaf3" stroke="#b8842f" stroke-width="2"/><text x="115.0" y="158" text-anchor="middle" font-size="16" fill="#1d2a33">原始网页/XML</text><rect x="240" y="130" width="150" height="60" rx="16" fill="#fffaf3" stroke="#b8842f" stroke-width="2"/><text x="315.0" y="158" text-anchor="middle" font-size="16" fill="#1d2a33">标准化清洗</text><rect x="440" y="130" width="150" height="60" rx="16" fill="#fffaf3" stroke="#b8842f" stroke-width="2"/><text x="515.0" y="158" text-anchor="middle" font-size="16" fill="#1d2a33">主力连续构建</text><rect x="640" y="70" width="160" height="60" rx="16" fill="#fffaf3" stroke="#b8842f" stroke-width="2"/><text x="720.0" y="98" text-anchor="middle" font-size="16" fill="#1d2a33">趋势/波动率</text><rect x="640" y="190" width="160" height="60" rx="16" fill="#fffaf3" stroke="#b8842f" stroke-width="2"/><text x="720.0" y="218" text-anchor="middle" font-size="16" fill="#1d2a33">相关性/VaR</text><rect x="850" y="130" width="150" height="60" rx="16" fill="#fffaf3" stroke="#b8842f" stroke-width="2"/><text x="925.0" y="158" text-anchor="middle" font-size="16" fill="#1d2a33">页面与论文配图</text>
</svg>