<svg xmlns="http://www.w3.org/2000/svg" width="1080" height="380" viewBox="0 0 1080 380">
<defs>
  <marker id="arrow" markerWidth="10" markerHeight="10" refX="8" refY="3" orient="auto" markerUnits="strokeWidth">
    <path d="M0,0 L0,6 L9,3 z" fill="#7d3d1f"/>
  </marker>
</defs>
<rect width="1080" height="380" fill="#f8f4ed"/>
<text x="540" y="36" text-anchor="middle" font-size="24" fill="#1d2a33" font-weight="bold">系统总体架构图</text>
<line x1="190" y1="105" x2="260" y2="160" stroke="#7d3d1f" stroke-width="3" marker-end="url(#arrow)"/><line x1="190" y1="225" x2="260" y2="190" stroke="#7d3d1f" stroke-width="3" marker-end="url(#arrow)"/><line x1="430" y1="175" x2="500" y2="175" stroke="#7d3d1f" stroke-width="3" marker-end="url(#arrow)"/><line x1="670" y1="160" x2="740" y2="105" stroke="#7d3d1f" stroke-width="3" marker-end="url(#arrow)"/><line x1="670" y1="190" x2="740" y2="225" stroke="#7d3d1f" stroke-width="3" marker-end="url(#arrow)"/>
<rect x="40" y="70" width="150" height="70" rx="16" fill="#fffaf3" stroke="#b8842f" stroke-width="2"/><text x="115.0" y="98" text-anchor="middle" font-size="16" fill="#1d2a33">CFFEX</text><text x="115.0" y="118" text-anchor="middle" font-size="16" fill="#1d2a33">日统计</text><rect x="40" y="190" width="150" height="70" rx="16" fill="#fffaf3" stroke="#b8842f" stroke-width="2"/><text x="115.0" y="218" text-anchor="middle" font-size="16" fill="#1d2a33">PBC / NBS</text><text x="115.0" y="238" text-anchor="middle" font-size="16" fill="#1d2a33">宏观数据</text><rect x="260" y="130" width="170" height="90" rx="16" fill="#fffaf3" stroke="#b8842f" stroke-width="2"/><text x="345.0" y="158" text-anchor="middle" font-size="16" fill="#1d2a33">数据采集层</text><text x="345.0" y="178" text-anchor="middle" font-size="16" fill="#1d2a33">ingest</text><rect x="500" y="130" width="170" height="90" rx="16" fill="#fffaf3" stroke="#b8842f" stroke-width="2"/><text x="585.0" y="158" text-anchor="middle" font-size="16" fill="#1d2a33">数据存储层</text><text x="585.0" y="178" text-anchor="middle" font-size="16" fill="#1d2a33">DuckDB / Parquet</text><rect x="740" y="70" width="170" height="70" rx="16" fill="#fffaf3" stroke="#b8842f" stroke-width="2"/><text x="825.0" y="98" text-anchor="middle" font-size="16" fill="#1d2a33">分析服务层</text><text x="825.0" y="118" text-anchor="middle" font-size="16" fill="#1d2a33">FastAPI</text><rect x="740" y="190" width="170" height="70" rx="16" fill="#fffaf3" stroke="#b8842f" stroke-width="2"/><text x="825.0" y="218" text-anchor="middle" font-size="16" fill="#1d2a33">展示层</text><text x="825.0" y="238" text-anchor="middle" font-size="16" fill="#1d2a33">Streamlit</text>
</svg>